<?xml version="1.0" encoding="utf-8"?>
<!DOCTYPE svg PUBLIC "-//W3C//DTD SVG 1.0//EN" "http://www.w3.org/TR/2001/REC-SVG-20010904/DTD/svg10.dtd">
<svg version="1.0" xmlns="http://www.w3.org/2000/svg" width="1069px" height="1069px" viewBox="0 0 1069 1069" preserveAspectRatio="xMidYMid meet">
 <g fill="#8e2e1f">
  <path d="M0 534.5 l0 -534.5 534.5 0 534.5 0 0 534.5 0 534.5 -534.5 0 -534.5 0 0 -534.5z m670.2 351.2 c-7.2 -2.5 -22.5 -7.7 -34.1 -11.6 -19.6 -6.4 -21.1 -7 -21.4 -9.5 -0.3 -2.4 -1.1 -2.8 -11.3 -5 -24.4 -5.4 -53.8 -17.4 -74.4 -30.5 -23 -14.4 -46.9 -35.3 -63.3 -55.3 -7.6 -9.2 -7.8 -9.5 -17.2 -13.2 -5.2 -2.1 -12.1 -4.6 -15.2 -5.6 -5.7 -1.8 -5.7 -1.8 -5.7 -6 l0 -4.2 5.7 -0.3 c10.8 -0.6 23.9 4.5 63.7 24.5 30.3 15.3 53.6 25.3 59.6 25.5 2 0 6.6 -0.3 10.3 -0.6 8.7 -0.9 14.2 1 15.1 5.4 0.4 1.6 1 3.7 1.5 4.5 2.7 5.1 63.6 13.8 83.1 11.8 15 -1.5 31.6 -3.9 39.7 -5.6 5.1 -1 11.1 -2 13.3 -2 3.8 0 4 0.1 4 3.5 0 4.4 -0.7 5 -11 8.2 -25 8 -61.8 10.1 -99.3 5.4 -33.2 -4.1 -64.2 -13.5 -97.5 -29.3 l-16.2 -7.7 4.7 4.2 c2.6 2.3 9.9 8.1 16.2 12.8 42.8 32.4 80.8 45.4 145.1 49.9 27.7 1.9 72.3 -0.6 94.3 -5.3 5.2 -1.1 5.4 -1.4 5.4 -4.6 0 -5 3.3 -7.4 18 -13.3 25.2 -10.2 58.4 -29.5 75 -43.7 3.8 -3.2 10.8 -8.8 15.7 -12.4 11.2 -8.5 20 -16.1 31.1 -26.7 10.5 -10.1 29.2 -30.4 24.4 -26.3 -2.5 2 -4.7 2.8 -7.6 2.8 -3.9 0 -4.1 -0.1 -4.1 -3.4 0 -1.9 0.7 -4.5 1.7 -5.7 1.5 -2.2 1.5 -2.3 -0.5 -2.3 -1.8 0 -2.2 -0.6 -2.2 -3.5 0 -3.4 -0.1 -3.3 -13.7 10 -12.9 12.8 -13.8 13.5 -17.4 13.2 -3 -0.2 -3.9 -0.8 -4.4 -2.9 -0.4 -1.8 -0.8 -2.2 -1.5 -1.3 -0.4 0.6 -2.8 1.3 -5.4 1.3 -4 0 -4.6 -0.3 -4.6 -2.3 0 -1.8 -2.1 -0.1 -10.1 7.6 -20 19.4 -55.7 43.7 -64.2 43.7 -2.2 0 -4 -0.4 -4 -1 0 -0.5 -4.8 1.6 -10.6 4.7 -12.5 6.6 -23.6 11 -27.9 11 -2.1 0 -4.8 -1.5 -8.4 -4.6 -2.9 -2.5 -9.8 -6.8 -15.2 -9.6 -9.6 -5 -9.9 -5.2 -9.9 -8.8 0 -3.2 1 -4.7 7.9 -11.5 46.4 -45.7 77.1 -107.8 87.3 -175.9 3.3 -21.8 3.2 -57.9 0 -79.3 -2.6 -17 -8 -39 -12.6 -51.6 -1.8 -4.9 -3.2 -10.1 -3.2 -11.8 0 -2.5 0.4 -2.9 2.8 -2.9 2.2 0 2.5 -0.3 1.6 -1.3 -1 -1 -1.8 -1 -3.3 0 -1.1 0.6 -3.8 1.3 -5.7 1.3 -3.4 0 -3.7 -0.2 -3.7 -3.4 0 -1.9 0.5 -4 1.1 -4.6 1.3 -1.3 -4.4 -13.2 -13.5 -27.9 -35.7 -58.3 -92.9 -99.5 -160 -115.4 -35.4 -8.5 -73.6 -9.7 -110.6 -3.7 -58.4 9.6 -114.3 37.6 -156.8 78.5 -49.2 47.5 -81.4 108.8 -91.1 173.4 -10.6 70.9 8.4 142.3 54.1 203.2 7.1 9.4 24 28.7 31.9 36.5 4.2 4 5.3 5.8 5.3 8.4 -0.1 2.8 -1.3 3.9 -10.8 10.3 -5.8 3.9 -39.5 26.9 -74.6 51.2 l-64.1 44 65.7 0.5 c36 0.3 144.5 0.6 240.9 0.7 l175.4 0.2 -13 -4.7z m-407.1 -503.6 c0 -1.8 -0.7 -2.1 -4.2 -2.1 -3.4 0 -4.2 0.3 -4.2 2.1 0 1.8 0.7 2.1 4.2 2.1 3.4 0 4.2 -0.3 4.2 -2.1z m620.1 -5.2 c0 -0.5 -0.9 -1 -2.1 -1 -1.1 0 -2.1 0.5 -2.1 1 0 0.6 0.9 1 2.1 1 1.1 0 2.1 -0.4 2.1 -1z m-711 -21.5 c9 -3 14.5 -2.9 16.2 0.1 0.6 1.1 1.3 2.3 1.4 2.5 0.2 0.2 0.9 -0.2 1.9 -0.9 2.6 -2.2 1.9 -4.2 -1.6 -4.2 -2.9 0 -3.1 -0.2 -3.1 -4.1 0 -2.3 1 -6 2.5 -8.6 2.3 -4.1 5.8 -15.5 5.8 -18.6 0 -0.8 -0.5 -0.9 -2 -0.1 -2.6 1.4 -8.4 13 -10 20.1 -1.1 5.2 -1.4 5.4 -5 5.7 -3.2 0.3 -3.9 0.7 -3.9 2.8 0 1.9 -0.7 2.6 -3.3 3.1 -6 1.1 -13.4 3.8 -14 4.9 -0.9 1.6 5.4 0.3 15.1 -2.9z m152.5 -70.9 c0 -1 -1 -1.6 -2.8 -1.6 l-2.9 0 2.6 1.5 c1.5 0.8 2.7 1.5 2.9 1.6 0.1 0.1 0.2 -0.6 0.2 -1.5z m487.3 -32 c0.3 -1.5 -0.3 -1.9 -2.8 -1.9 -2.6 0 -3.2 0.4 -3.2 2.2 0 1.7 0.5 2.1 2.8 1.8 1.8 -0.2 3 -1 3.2 -2.1z"/>
 </g>
 <g fill="#010101">
  <path d="M259.5 892.6 c-75.9 -0.5 -71.1 -0.1 -62.7 -5.8 17 -11.7 126.4 -86.9 137 -94.1 12.3 -8.4 13.6 -9.5 12.2 -11 -1.5 -1.5 -1 -1.9 3.4 -4.7 4 -2.5 5.4 -4.1 6.4 -7.3 1 -3.5 2.4 -4.9 9.8 -9.5 7.2 -4.5 9.4 -5.4 13.5 -5.4 3.5 0 6.4 -0.9 10.6 -3.3 4.9 -2.9 6 -4.1 6.9 -7.8 1.7 -6.4 7.3 -10.8 14 -10.8 2.8 0 6 0.5 7 1 1.5 0.7 4.2 0.3 10.3 -1.6 4.6 -1.5 8.7 -3.1 9 -3.7 0.3 -0.6 0.3 -8.6 -0.1 -17.7 -0.7 -16.6 -0.7 -16.7 -3.1 -16.7 -3.4 0 -4 -3.2 -2.6 -15.2 1.3 -10.5 2.8 -15.7 5.6 -18.1 1.1 -0.9 1.8 -3 1.8 -6 0 -6.1 1.9 -7.7 8.9 -7.7 6.6 0 7.8 1.4 7.8 8.2 0 3.1 0.5 4.5 2.1 5.3 2.5 1.4 4.2 7.3 4.5 16.4 0.2 6.7 0.1 7.1 -2.1 7.4 -2.3 0.3 -2.4 0.8 -2.6 11.5 -0.1 6.2 -0.1 14 0 17.3 0.2 3.4 -0.2 6.5 -0.7 6.8 -0.6 0.4 -0.8 1.8 -0.4 3 0.4 1.8 1 2.2 3.3 1.7 1.5 -0.3 3.7 -0.7 4.9 -0.9 2 -0.4 2.3 -1.5 2.8 -9.1 0.4 -4.8 1.5 -16.7 2.4 -26.6 l1.8 -18 -9.2 -14.9 c-13.9 -22.5 -25.7 -40.5 -26.5 -40.5 -1.9 0 -4.2 4.1 -5.7 10.2 -2.4 9.5 -4.2 11.7 -9.2 11.7 l-4.3 0 0.5 -4.7 c0.5 -4.1 0.3 -4.7 -1.4 -4.7 -1.6 0 -2 -0.7 -2 -3.7 0 -3.1 -0.3 -3.7 -2.5 -3.7 -2.8 0 -3.8 -1.7 -3.8 -6.9 l0 -3.5 5.7 0 c7.2 0 11 -1.7 11 -4.8 0 -1.4 0.7 -2.8 1.6 -3.2 1.3 -0.7 1.1 -1.5 -1 -4.8 -2.3 -3.2 -3.2 -3.9 -6.5 -3.9 l-3.8 0 0.6 -5.1 c0.5 -4.1 0.2 -5.4 -1.5 -7.2 -1 -1.3 -2 -2.6 -2 -3.1 0 -0.6 -1.1 -1.8 -2.6 -2.7 -1.5 -0.9 -2.6 -2.6 -2.6 -3.8 0 -1 -5.5 -9.9 -12.3 -19.5 -22.9 -32.7 -22.4 -32 -21.9 -36.6 0.4 -3.1 8.1 -15.8 31.1 -51.5 16.8 -26.1 32.5 -50.1 34.7 -53.5 l4.1 -6 7.2 0 7.3 0 0 -3.7 c0 -2.8 2.3 -7.1 10.2 -19.3 5.5 -8.7 13.5 -20.9 17.4 -27 10.2 -15.9 9.3 -15 16.7 -14.5 6.7 0.4 9.7 2 33.4 17.3 14.5 9.4 15.1 10 15.1 16.1 l0 5 7.7 0 c6.9 0 8.1 0.3 10.6 2.6 1.6 1.5 3.7 2.6 4.7 2.6 1.1 0 2 0.4 2 1 0 1 11.3 9 14.3 10.1 3.1 1 15.8 10.6 18.7 14.2 2.3 2.8 2.6 4 2.3 8.2 l-0.5 5 5.4 0 c5.3 0 5.7 0.2 22.5 12.8 23.5 17.6 25 19.1 25 24.8 l0 4.6 5.5 -0.3 c5.4 -0.4 5.7 -0.2 13.4 5.8 4.3 3.4 12.6 11 18.5 16.6 14.5 14.1 14.5 14.9 -0.6 31.6 -4.2 4.5 -7.5 8.5 -7.5 8.8 0 0.3 0.9 0.6 2.1 0.6 1.8 0 2.1 0.7 2.1 4.5 0 2.4 -0.7 9.3 -1.6 15.3 -1.9 13.8 -1.9 13.6 0 13.6 2.8 0 2 6.8 -1.1 9.3 -1.6 1.3 -2.3 2.2 -1.6 2.2 0.6 0 1.1 1.7 1.1 3.8 0 2.8 -0.7 4.3 -3 6.3 -3.3 2.7 -4.6 7.8 -4.7 18.8 l-0.1 6.3 7.5 4.7 c7.2 4.4 7.5 4.8 7.6 8.6 l0 3.9 -4.5 0 c-3.3 0 -5.8 -0.8 -9.2 -3.1 -2.5 -1.7 -4.9 -3.1 -5.2 -3.1 -0.4 0 -1.8 2.9 -3 6.6 -4.7 12.9 -15.1 31.5 -25.5 45.4 l-4.2 5.6 0.3 25.6 c0.1 14.1 0.6 26.6 1 27.7 1 3 13.7 7 22.1 7.1 6.3 0 7.3 0.3 11.7 3.8 3.2 2.5 5.3 5.1 6.1 7.6 1.1 3.5 2.1 4.2 18.3 12.1 9.4 4.5 17.1 8.6 17.1 8.9 0 0.3 -0.5 1.1 -1.3 1.9 -1.5 1.5 -2.2 0.9 9.4 7 5.3 2.8 12 7.1 14.9 9.6 l5.2 4.4 7 -2.6 c13.6 -5.1 35.4 -17.7 47.6 -27.5 2.2 -1.8 4.8 -3.2 5.6 -3.2 2.2 0 -1.4 3.8 -11.1 11.7 -4.2 3.4 -7.4 6.5 -7.1 6.8 1.3 1.3 26.2 -14.5 42.9 -27.2 15.3 -11.7 33.4 -30.4 51.4 -53.3 7.8 -10 23.2 -32.3 27.9 -40.4 1.7 -2.8 3.5 -5 4.4 -5 0.8 0 1.5 0.3 1.5 0.6 0 0.4 -2.8 6 -6.4 12.3 -8.2 15.1 -21.2 34.5 -33.8 50.7 -5.5 7.1 -9.6 13.2 -9 13.4 0.5 0.2 4.2 -2 8 -4.9 8.5 -6.4 11 -7 7.9 -1.9 -1.1 2 -2.8 4.7 -3.8 6.2 -3.7 5.5 0.3 3.5 9.1 -4.6 18.4 -16.8 36.7 -41.3 48.8 -64.7 8 -15.5 9.8 -13.2 3.2 4.1 -3.7 9.4 -11.1 22.7 -20.7 37.1 -3.8 5.5 -6.6 10.6 -6.4 11.4 0.2 0.7 3.5 -1.7 7.9 -5.7 4.1 -3.9 7.9 -6.9 8.6 -6.7 0.6 0.2 -1.6 4.1 -4.9 8.7 -12.6 17.2 -13.4 20.8 -2.2 10.2 16.6 -15.9 38.1 -47.7 54.8 -81.4 9.8 -19.9 11.6 -18.3 3.4 3.3 -4.7 12.6 -13.8 30.9 -21.7 43.7 -20.8 33.7 -56.1 72 -88.9 96.7 -4.9 3.8 -11.9 9.3 -15.7 12.5 -16.6 14.2 -49.8 33.5 -75 43.7 -11.2 4.4 -18.9 9 -17.5 10.2 0.5 0.6 25.7 -5.5 39.4 -9.6 13.4 -4.1 15.6 -4.4 15.6 -2.2 0 3.1 -33.9 14.2 -57.9 18.9 -46.6 9.1 -113 8.6 -157.1 -1.1 -41.8 -9.3 -75.5 -27.2 -111.8 -59.8 -12.5 -11.1 -16.4 -15.3 -15.1 -16.6 0.4 -0.3 12.5 5.3 27 12.6 50 25.1 84.8 34.6 134.9 36.9 16.5 0.7 35.4 -0.5 49.6 -3.3 10 -2 24.1 -6.5 26.1 -8.4 2 -1.9 1.1 -1.9 -9.9 0.5 -38.3 8.4 -80.3 7.5 -118.9 -2.3 -9.5 -2.4 -10.4 -3.1 -11.6 -8.4 -0.9 -4.7 -6.4 -6.5 -14.7 -4.8 -5.5 1 -7.5 1 -13.2 -0.3 -10 -2.5 -34.1 -13.2 -61.2 -27 -30.8 -15.8 -50.3 -23.7 -56.5 -22.7 -4.1 0.6 -2.8 2.4 3 4.2 3.1 1 10 3.5 15.2 5.6 9.4 3.7 9.6 4 17.2 13.2 10.2 12.4 30.6 32 43 41.4 29.3 22 61.7 37.1 96 44.6 7 1.6 12.9 2.9 13.2 3.1 0.2 0.2 -0.3 1.3 -1.3 2.3 -1.6 1.8 0.2 2.5 35.1 14.2 41.3 13.9 43.5 14.7 43.5 16.2 0 1.1 -293.7 1.3 -438.9 0.1z m318 -224.3 c-0.1 -0.3 -0.6 0 -1.3 0.5 -0.5 0.5 -0.6 4 -0.2 7.7 l0.7 6.8 0.5 -7.3 c0.3 -4 0.4 -7.5 0.2 -7.7z m10.9 -10.6 c0.1 -2.8 0 -3.4 -0.3 -1.5 -0.2 1.8 -0.9 3.5 -1.5 4.2 -1.4 1.4 -1.1 2.8 0.4 2.4 0.7 -0.3 1.4 -2.4 1.4 -5.1z m-42.1 -121.7 c-0.4 -1 -1.6 -2.5 -2.6 -3.2 -2.2 -1.6 -2.5 -7.8 -0.8 -13.8 0.5 -2 0.7 -4.5 0.4 -5.5 -0.5 -1.8 -0.8 -1.6 -2.5 1.1 -1 1.8 -2.1 4.7 -2.3 6.6 -0.4 4.8 -3.8 6.5 -11.6 5.7 -5.7 -0.6 -6 -0.5 -4.9 1.5 0.9 1.8 2.2 2.1 9.5 2.1 8.2 0 8.4 0 11.5 3.7 3.7 4.1 4.3 4.5 3.3 1.9z m-38.9 -13.3 c0 -3.5 -0.3 -3.9 -11 -9.6 l-11 -6 0 -4.6 c0 -4.5 0 -4.5 3.7 -4.5 2.5 0 3.7 -0.5 3.7 -1.6 0 -0.9 0.9 -1.6 2.3 -1.6 3.9 0 0.6 -1.9 -3.9 -2.3 -3.2 -0.2 -4.2 -0.8 -4.7 -2.7 -0.5 -2.2 -12.4 -12.2 -13.4 -11.2 -0.2 0.2 0.3 1.9 1.3 3.8 2.4 4.8 2.2 10 -0.4 10.9 -3.4 1 -2.4 2.3 3.1 3.8 5.1 1.4 5.2 1.4 5.2 5.3 0 3.2 -0.5 4.3 -2.3 5 l-2.4 0.9 2.4 0.7 c1.3 0.3 2.3 1.5 2.3 2.5 0 1.3 2.1 2.9 6.6 4.9 3.5 1.8 8.9 4.6 11.7 6.4 2.9 1.8 5.5 3.3 6.1 3.3 0.4 0 0.7 -1.7 0.7 -3.5z"/>
  <path d="M895.7 536.8 c-1.5 -1.7 -3.3 -3.2 -4.1 -3.4 -0.8 -0.3 -1.1 -1 -0.7 -1.8 0.9 -1.6 5.4 -1.7 6.4 -0.2 0.4 0.6 1.7 0.3 3.2 -0.9 3.2 -2.6 8.7 -3.8 10.1 -2.3 0.7 0.7 0.3 1.4 -1.5 2.1 -3.2 1.3 -7.2 5 -7.2 6.8 0 1.1 -2.1 2.7 -3.5 2.7 -0.1 0 -1.4 -1.4 -2.7 -2.9z"/>
  <path d="M800.7 443.6 c0 -1.5 -1.3 -2.6 -4.2 -3.9 -3.5 -1.6 -4.2 -2.2 -4.2 -5 0 -3.5 2.3 -6.3 4.2 -5.1 0.8 0.5 0.4 1.6 -1.1 3.2 -1.3 1.4 -1.9 2.5 -1.3 2.5 0.6 0 1.7 -0.7 2.4 -1.6 1.7 -2 4.9 -2 8.6 -0.1 2.7 1.5 3 1.4 4.9 -1 2.7 -3.4 7.2 -5.6 11.8 -5.6 5.2 0 4.4 2.1 -2.1 5.3 -4.2 2.1 -4.9 3 -5.2 5.8 -0.4 3.9 -3.1 5.1 -9 4.2 -3.1 -0.5 -3.4 -0.3 -3 1.5 0.3 1 0 2 -0.6 2 -0.6 0 -1.1 -0.9 -1.1 -2.2z"/>
  <path d="M119 423.3 c0 -1.9 -2.9 -3.2 -8.7 -4.2 -2.2 -0.3 -3.7 -1 -3.3 -1.7 0.8 -1.4 9.6 -1.1 12.2 0.2 1.9 1 2.6 0.7 5.2 -2.1 4.1 -4.4 8.6 -6.6 12.6 -6.2 l3.3 0.3 -3.7 2 c-6 3.1 -9.4 6.9 -8.8 9.5 0.4 1.8 0 2.5 -1.9 3 -4.2 1 -7.1 0.7 -7.1 -0.9z"/>
  <path d="M250 388.5 c-0.3 -0.6 -4.1 -1.1 -8.5 -1.1 -5.4 0 -7.6 -0.3 -7.1 -1.1 1.3 -2 9.2 -5.1 13.3 -5.1 4.4 0 4.9 -0.9 1.6 -3 -2.1 -1.4 -2.2 -1.5 -0.4 -2.7 1.5 -1.1 2.7 -1.1 6.7 0.2 2.6 0.9 4.9 1.3 5.1 0.7 1.1 -3.3 5 -8 8.7 -10.4 6.7 -4.5 6.8 -2.1 0.5 8.5 -2 3.2 -3.7 6.1 -3.7 6.3 0 0.1 2.1 1.6 4.7 3.2 2.6 1.6 4.7 3.2 4.7 3.5 0 0.3 -4.8 0.5 -10.6 0.5 -6 0 -11.5 0.4 -12.4 0.8 -1 0.5 -2.1 0.4 -2.5 -0.2z"/>
  <path d="M187.2 362 c-0.4 -0.7 -1.4 -2.3 -2 -3.4 -1.3 -2.5 -2.7 -2.4 -14 1 -7.2 2.2 -10.5 2.6 -17.7 2.4 l-8.9 -0.3 5.2 -3.9 c2.9 -2.2 7.8 -4.7 11 -5.6 3.1 -0.9 6.9 -2.1 8.4 -2.5 2.5 -0.7 2.3 -0.9 -2.5 -3 -4.3 -1.9 -4.8 -2.5 -3.8 -3.8 1.7 -2 4.8 -2 10.4 0 2.4 0.8 4.8 1.4 5.2 1 0.4 -0.2 1 -2.5 1.5 -4.9 0.4 -2.5 2.3 -7.8 4.3 -11.8 2.8 -6 4.7 -8.2 9.5 -11.8 7 -5.2 9.2 -5.6 7.6 -1.6 -0.5 1.5 -2.2 7.7 -3.7 13.8 -1.4 6.1 -3.8 13 -5.1 15.6 -1.5 2.6 -2.6 5 -2.6 5.4 0 0.4 2.5 1.1 5.5 1.5 7.2 0.9 9.4 2.2 6 3.5 -1.5 0.5 -4.2 2.9 -6.1 5.3 -3.4 4.3 -6.7 5.4 -8.2 3z"/>
  <path d="M711.8 308.8 c1.9 -2.1 2 -2.6 0.6 -4.4 -0.8 -1.1 -1.5 -2.4 -1.5 -2.9 0 -1.5 4.5 -0.9 6.4 0.7 1.6 1.6 2.1 1.5 5.7 -1 4.1 -2.7 8.5 -4.3 9.4 -3.3 0.3 0.3 -1.4 2.3 -3.7 4.5 -2.4 2.1 -4.2 4.6 -4.1 5.4 0.3 2 -3.3 3 -10.5 3.2 l-4.6 0.1 2.2 -2.3z"/>
  <path d="M320.4 289 c-1.3 -1.8 -3 -2.3 -8 -2.7 -5.4 -0.4 -6.3 -0.7 -5.3 -1.9 0.6 -0.8 2.4 -1.5 4 -1.6 2.6 0 2.5 -0.1 -0.8 -1.4 -3 -1 -3.2 -1.4 -1.8 -2.6 1.3 -1.1 2.6 -1.1 6.8 -0.1 5.5 1.4 7.4 0.8 7.4 -1.8 0 -5.3 8.9 -14.9 13.8 -14.9 1.9 0 1.8 0.3 -0.5 4.5 -1.5 2.4 -3.3 6.9 -4.4 9.8 -0.9 3 -2.2 5.7 -2.7 6.1 -1.8 1.1 -0.9 2.4 2.2 3 4.3 0.8 4 1.9 -1.4 4.1 -5.6 2.3 -7.1 2.2 -9.2 -0.5z"/>
  <path d="M804.3 257.9 c-7.1 -1.7 -7.4 -2 -4.2 -4.6 l3 -2.3 -6.1 -6.5 c-3.3 -3.5 -7.3 -7.3 -9 -8.2 -3.8 -2.2 -4.3 -6.1 -0.6 -5 8.5 2.5 16.2 8 20 14.5 0.9 1.6 1.5 1.5 6.2 -0.9 5.3 -2.7 14.7 -3.5 22.4 -2 4.1 0.8 3.8 2.9 -0.5 3.3 -4.9 0.4 -12.1 2.2 -16.4 4.1 -2.9 1.3 -3.9 2.2 -3.7 3.9 0.2 1.4 -0.6 2.6 -2.3 3.4 -2.9 1.5 -4.2 1.6 -9 0.3z"/>
 </g>
 <g fill="#e44f21">
  <path d="M338.7 774.4 c-22.4 -23.3 -37.8 -43.6 -50.9 -67.4 -29.8 -53.9 -40.5 -114 -31.4 -174.5 14.3 -95 76.9 -181.1 163.3 -224.4 33.4 -16.7 67.3 -26.4 106.5 -30.4 17.7 -1.8 57.8 -0.6 73.7 2.1 32.4 5.7 56.8 13.8 82.5 27 46.8 24.3 87 65.6 110.2 113.4 l5.1 10.4 -2.3 2.4 -2.2 2.4 2.3 0 c3.2 0 8.5 2.9 8.5 4.7 0 0.8 -0.4 1.6 -0.9 1.6 -0.5 0 0.4 3.9 2.2 8.6 4.5 12.4 9.9 34.6 12.5 51.5 3.3 21.6 3.3 63.5 0 85.6 -10 67.6 -38.6 126 -85.1 173.5 l-10.3 10.5 -17.5 -8.5 c-16.5 -8.1 -17.5 -8.8 -18.7 -12.3 -2.3 -7.5 -13.2 -13.4 -18.9 -10.3 -1.5 0.7 -3.3 0.4 -7.5 -1.6 -3 -1.5 -7.1 -2.9 -9 -3.2 -2.2 -0.4 -3.8 -1.5 -4.3 -2.9 -0.5 -1.1 -1.1 -15.1 -1.4 -30.9 l-0.5 -28.7 4.4 -5.7 c10.4 -13.9 21 -32.8 25.6 -45.9 1.4 -3.8 2.8 -7.2 3.2 -7.6 1 -1.4 3.8 -0.2 10.3 4 5.4 3.5 8.4 4.5 8.4 2.9 0 -0.5 -3.9 -3.1 -8.5 -6.1 -4.7 -2.8 -8.8 -5.7 -9 -6.6 -0.3 -0.7 0.3 -2.3 1.3 -3.3 1.4 -1.5 1.5 -2.1 0.5 -2.1 -1.3 0 -1 -4.4 0.4 -10.4 0.2 -0.8 0.7 -3.5 1.1 -6.1 0.5 -3 1.8 -5.2 4 -7.1 2.8 -2.4 3 -2.8 1.5 -3.8 -2.4 -1.3 -1.3 -5.6 2.3 -8.8 2.7 -2.4 2.7 -2.4 0.4 -2.5 -1.4 0 -2.4 -0.1 -2.4 -0.2 0 -0.2 0.9 -7.3 2.1 -15.9 1.1 -8.5 2.1 -15.9 2.1 -16.4 0 -2.6 -3.3 0 -11 8.5 -4.6 5 -8.7 9.3 -9.1 9.3 -0.5 0.1 -0.8 -1.7 -0.8 -4 0 -3.7 0.9 -5 9.5 -14.3 14 -14.9 23.6 -26 25 -28.6 1.1 -2.2 0.4 -3.1 -9.5 -12.7 -13.2 -12.7 -25.5 -22.8 -28 -22.8 -2.6 0 -6.3 4.3 -22.7 26.4 l-14.5 19.5 -0.3 -4.8 c-0.3 -3.9 0.1 -5.3 2 -7.3 1.3 -1.4 3.1 -2.5 4.2 -2.5 0.9 0 2.3 -0.7 3 -1.6 1 -1.4 0.9 -1.6 -0.9 -1.6 -1.1 0 -2.2 -0.4 -2.2 -0.8 0 -0.5 4.9 -7.7 11 -16 6.6 -9 11 -16.1 11 -17.5 0 -3.3 -4.2 -7.1 -25.1 -22.8 -14.3 -10.9 -17.6 -12.8 -20.4 -12.6 -2.8 0.3 -4.4 2.2 -14.3 17 -20 29.9 -21.9 32.3 -22.8 30.7 -2.8 -5.3 -2.3 -6.5 8.5 -21.9 11.4 -16.3 20 -30.3 21.3 -34.1 0.6 -2.1 -0.1 -3.3 -4.4 -7.3 -5.3 -5.1 -15.9 -12.9 -14.6 -11 0.4 0.7 -3.1 -1.5 -8 -4.7 -4.8 -3.2 -8.5 -6.4 -8.1 -6.9 0.3 -0.5 0.1 -0.7 -0.4 -0.3 -1.1 0.6 -9.1 -3.9 -8.2 -4.7 0.3 -0.3 -2.1 -0.5 -5.2 -0.6 l-5.8 0 -6.1 9.1 c-6.8 10.1 -23.1 36.2 -23.1 37 0 0.2 1.5 1 3.1 1.8 2 0.8 3.1 2.1 3.1 3.3 0 1.8 0.3 1.9 1.6 0.8 1.1 -0.9 3.5 -0.4 12.2 3.1 17.6 7.2 18.6 7.8 18.6 11.9 0 5.4 -2.9 20.8 -5.3 28.3 -2.1 6.3 -5 9.8 -8.8 10.5 -0.5 0.2 -2.6 0.6 -4.4 0.9 -3.3 0.7 -3.4 0.7 -3.4 -2.8 0 -3.1 0.5 -3.9 4 -5.5 2.1 -1 4.6 -2 5.6 -2 2.6 -0.1 2.9 -0.9 2 -4.4 -0.5 -2.1 -0.2 -4.3 1 -7.2 2.6 -5.6 2.5 -13 -0.1 -16.4 -1 -1.5 -6.2 -4.4 -11.2 -6.6 -5 -2.3 -10 -4.8 -11.1 -5.6 -1 -0.8 -3.3 -2.1 -5.2 -2.7 -1.9 -0.7 -17.9 -7 -35.7 -14.1 -21.4 -8.5 -34.1 -12.9 -37.7 -13.4 l-5.4 -0.4 -4.1 6.1 c-14.6 21.7 -65.2 101.1 -65.4 102.5 -0.1 1.8 9.2 15.8 27 40.9 4.7 6.6 8 12.3 7.5 12.6 -0.5 0.4 0.4 1.7 2.2 2.9 1.8 1.4 3 2.7 2.7 3.2 -0.3 0.5 -0.1 1 0.3 1.3 0.5 0.1 2.1 2.2 3.7 4.5 2.8 4.1 2.8 4.1 0.7 6.3 l-2.1 2.2 3.4 -0.3 c3.1 -0.4 3.7 0.1 8.2 7.2 l5 7.6 -2.9 0.3 c-3.2 0.4 -5.8 2.3 -3.1 2.3 3.7 0 2.7 2 -1.8 4.1 -2.8 1.4 -7 2.3 -10.5 2.3 -4.6 0.1 -5.6 0.5 -5.2 1.7 0.3 0.8 0.6 1.8 0.6 2 0 0.2 2.7 0.4 6 0.4 l6 0 -3.3 3.4 -3.3 3.4 3.7 -0.4 c3.7 -0.4 3.8 -0.4 3 2.5 -0.4 1.7 -1.5 4.1 -2.3 5.4 -0.8 1.3 -1 2.3 -0.4 2.3 1.8 0 4.4 -5 6.1 -11.7 1.7 -6.8 6.1 -12.3 9.9 -12.3 0.9 0 3.1 2.2 4.8 5 1.8 2.7 8 12.6 14.1 22.1 6 9.5 12.8 20.6 15.2 24.5 l4.3 7.3 -2 18.8 c-1 10.3 -2.3 23.4 -2.7 28.9 -0.7 11.1 -0.3 10.5 -8.2 11.8 -2.3 0.3 -5 0.8 -6 1.1 -1.9 0.5 -4 -2.9 -4.3 -7.1 -0.1 -1 -0.7 -1.9 -1.5 -1.9 -0.9 0 -1.4 1.7 -1.4 5.1 0 3.8 -0.4 5.3 -1.7 5.7 -0.9 0.4 -2 0.4 -2.3 0.2 -0.2 -0.3 -0.1 -4.6 0.3 -9.5 0.5 -6.4 1.1 -8.9 2.1 -8.9 0.8 0 1.6 1.3 1.8 2.8 0.5 4.4 2.5 4 2.3 -0.4 -0.1 -2.5 0 -2.9 0.3 -1 0.2 1.6 0.8 2.8 1.4 2.8 0.5 0 0.7 -0.7 0.4 -1.6 -0.4 -0.9 -0.3 -6.1 0.1 -11.5 0.5 -7.4 1 -9.9 2.2 -9.9 1.4 0 1.4 -4.5 0 -11.6 -0.2 -1 0.3 -1.7 1.4 -1.6 1.4 0.1 1.6 -0.7 1.4 -4.1 -0.6 -7.4 -2.2 -11.7 -5 -13.6 -2.3 -1.5 -2.6 -2.3 -2.1 -5.3 0.9 -4.5 -0.8 -7.7 -4.1 -7.7 -4.6 0 -7 4.2 -4.7 8.4 0.9 1.7 0.5 2.5 -2 4.8 -3.8 3.3 -5 6.7 -6.3 17 -1.1 8.9 -0.7 10.5 2.5 10.5 2.4 0 2.4 0.1 3.1 19.7 0.4 10.9 0.4 20.3 0.1 20.9 -0.4 0.5 -5.2 2.5 -10.8 4.3 -9.7 3.1 -10.3 3.2 -13.6 1.7 -4.9 -2.3 -6.6 -2.1 -11.1 1.6 -2.7 2.2 -4.2 4.6 -5 7.8 -0.6 2.5 -1.6 4.6 -2 4.6 -0.4 0 -3.7 1.9 -7.3 4.3 -5.8 3.8 -6.9 4.1 -9 2.9 -2.9 -1.5 -4 -1 -13.7 5 -6.5 4.1 -7.8 5.5 -8.9 9 -1.1 3.8 -5.5 7.7 -10.6 9.7 -0.6 0.2 -5 -3.4 -9.6 -8.1z m188.2 -368 c20.6 -31.5 21.4 -33.3 16.8 -37.6 -6.4 -5.7 -38.6 -25.4 -43 -26.1 -4 -0.6 -4 -0.6 -13.7 14.4 -4 6.2 -11.9 18.4 -17.4 27 -5.6 8.6 -10.2 16.1 -10.2 16.7 0 0.5 1 1.6 2.4 2.3 4.2 2.3 50.3 20.6 52 20.6 1.1 0.1 5.8 -6.2 13.2 -17.3z"/>
  <path d="M574.2 701.8 c-0.1 -11.7 -0.6 -18 -2.8 -31.2 -0.4 -3 -0.1 -3.7 4.6 -6.7 10.4 -7.1 11.1 -11 4 -25.9 -5 -10.4 -5 -12.7 0 -12.7 4.1 0 12 20 12 30.4 0 2.8 0.6 3.3 5.2 5.3 6.3 2.6 6.7 4 1.1 4 -9.6 0 -13.8 1.3 -15.9 4.6 -1.8 2.9 -2 5.5 -2 24.4 l0 21.1 -3.1 0 -3.1 0 0 -13.3z"/>
  <path d="M563.5 609.5 l-3.9 -6.5 2.2 -2.9 c1.1 -1.7 2.8 -2.9 3.8 -2.7 1.9 0.3 8.6 10.9 8.6 13.5 0 0.9 -1.3 2.3 -2.8 3.1 -1.7 0.7 -3.1 1.6 -3.4 1.7 -0.3 0.1 -2.3 -2.6 -4.4 -6.2z"/>
  <path d="M556.4 587.2 c0 -4.2 1.3 -4.7 3.5 -1.4 1.1 1.7 1.4 2.6 0.4 3.7 -2.1 2.6 -4 1.6 -4 -2.3z"/>
  <path d="M544.2 584.3 c-3.2 -3.5 -7.6 -10.4 -7.6 -12 0 -2.4 3 -2.5 6.2 -0.3 2.6 1.9 3.2 3.2 3.9 8 0.3 3.1 0.4 6 0.2 6.2 -0.3 0.3 -1.5 -0.5 -2.6 -1.9z"/>
  <path d="M635.6 579.1 l-4 -1.3 2.2 -3.3 c1.6 -2.5 3 -3.4 4.9 -3.4 2.1 0 5.3 -2.6 13.6 -11 6.1 -6.1 11.6 -11 12.3 -11 1.9 0 1.9 3.5 0 7.1 -1.7 3.2 -22.8 24.2 -24.2 24.1 -0.5 0 -2.7 -0.6 -4.8 -1.3z"/>
  <path d="M624.3 574.9 c-1.5 -0.6 -2.8 -1.3 -3 -1.4 -0.2 -0.2 0.7 -1.8 2 -3.5 2 -2.7 2.8 -3.1 5.1 -2.6 4.3 1 4.7 2.2 2.3 5.6 -2.6 3.5 -2.6 3.5 -6.4 1.9z"/>
  <path d="M614.7 570.8 c-3.5 -1.3 -3.7 -2.9 -0.5 -5.8 2.5 -2.3 6.4 -3 7.4 -1.4 0.6 0.9 -2.1 7 -3.3 7.7 -0.4 0.3 -2 0 -3.5 -0.5z"/>
  <path d="M527.8 564.1 c-4.2 -5.4 -3.8 -7.9 0.8 -5.8 1.8 0.8 2.7 2.3 3.2 5.4 0.4 2.4 0.5 4.6 0.2 4.8 -0.3 0.3 -2.2 -1.7 -4.3 -4.4z"/>
  <path d="M591.9 559.5 c-3.3 -1.4 -3.3 -1.4 -2.5 -4.4 1.3 -5.1 14 -10.2 14 -5.6 0 1.7 -6.7 11.2 -7.8 11.1 -0.5 0 -2.2 -0.5 -3.7 -1z"/>
  <path d="M576.4 552.7 l-5.6 -2.5 2.9 -3.1 c1.7 -1.8 4 -3.1 5.1 -3.1 3.7 0 6.9 1.3 6.9 2.5 0 2.3 -2.2 9 -2.9 8.9 -0.4 0 -3.2 -1.1 -6.4 -2.6z"/>
  <path d="M523.9 551.6 c-2.2 -0.9 -4 -2.5 -4.4 -3.9 -0.9 -3.4 -0.7 -9.1 0.3 -9.1 0.9 0 5 5.8 7.8 11.3 2 3.8 1.7 3.9 -3.8 1.7z"/>
  <path d="M564.5 548.1 c-3.9 -1.1 -6 -2.9 -5.3 -4.6 0.3 -0.8 -0.2 -1.7 -1.1 -2.1 -1.1 -0.4 -1.5 -0.2 -0.9 0.7 0.5 0.8 0.4 0.9 -0.3 0.2 -1.7 -1.6 -2.7 -7.5 -1.5 -8.4 0.6 -0.3 2.3 0.5 3.8 2 1.5 1.5 2.9 2.7 3.1 2.7 0.3 0 2 0 3.7 0 2.4 0 3.1 0.5 3.1 2 0 1.1 -0.6 2.3 -1.3 2.6 -1 0.3 -0.8 0.9 0.5 2 2.1 1.7 2.4 3.9 0.5 3.8 -0.7 0 -2.7 -0.5 -4.3 -0.9z"/>
  <path d="M600.8 543.9 c-1.1 -1.9 4.8 -11.4 10.5 -16.7 4.2 -4 6.3 -5.2 8.7 -5.2 1.8 0 3.2 0.3 3.2 0.6 0 1.3 -13.6 18.1 -16.3 20.1 -3 2.4 -5.1 2.8 -6.2 1.1z"/>
  <path d="M513 543.1 c-1.1 -0.7 -8.4 -10.9 -9 -12.6 -0.1 -0.5 -0.9 -1.1 -1.8 -1.4 -0.8 -0.2 -2.3 -1 -3.3 -2.1 -0.9 -0.9 -5.8 -3.7 -10.8 -6.2 -6.4 -3.1 -9 -5 -9 -6.4 0 -1 -0.7 -1.9 -1.6 -1.9 -1.6 0 -3.1 -2.8 -3.9 -6.9 -0.2 -1.5 0.3 -2 2.2 -2 1.5 0 2.7 -0.6 3 -1.4 0.2 -0.6 -0.2 -1.3 -0.8 -1.3 -0.7 0 -3.8 -0.7 -6.9 -1.7 l-5.6 -1.6 1.8 -3.3 c1.9 -3.3 3 -4.5 5 -5.2 0.6 -0.2 0.5 -0.9 -0.2 -1.9 -1.4 -1.7 -4.5 -15.2 -3.7 -16.1 1.1 -1 4.2 -0.4 5.4 1 0.7 0.8 4.7 4.2 8.9 7.3 4.6 3.3 7.5 6.4 7.4 7.4 0 0.9 0.5 2 1.3 2.2 0.7 0.3 1 -0.1 0.6 -1.1 -0.4 -1 -0.1 -1.7 0.9 -1.7 4.5 0 11.2 10.5 7.9 12.5 -0.7 0.5 -2.2 0.4 -3.2 -0.1 -1.4 -0.7 -1.9 -0.6 -1.7 0.3 0.2 0.8 -1 1.5 -3.5 1.7 -2.3 0.2 -4 0.8 -4 1.7 0 0.7 5 4.1 11.3 7.5 11.1 6.1 11.2 6.2 11.2 10 0 2.1 0.3 3.5 0.8 3.2 0.4 -0.2 0.7 0.1 0.7 0.6 0 0.6 -0.5 1.1 -1.1 1.1 -0.8 0 -0.7 0.5 0.2 1.7 0.7 0.9 1.5 2.4 1.6 3.3 0.1 1 0.5 4.5 0.9 7.8 0.8 6.2 0.7 6.5 -1.1 5.1z"/>
  <path d="M545.5 541.9 c-1.8 -1 -4.4 -3.3 -5.8 -5 -2.4 -2.9 -3 -3.1 -10.9 -3.2 -6.5 -0.2 -8.7 -0.6 -9.6 -2 -1.5 -1.9 -1.9 -10.8 -0.5 -10.8 0.4 0 3 0.7 5.8 1.6 6.5 2 10.5 0.5 10.5 -3.9 0 -4.2 5.8 -13.6 8 -12.9 2.5 0.6 3.2 -0.9 1.9 -3.7 -1 -1.9 -0.8 -2.6 1.7 -5.2 3.4 -3.5 4.6 -3.8 4.6 -0.9 0 1.1 0.7 2.1 1.6 2.1 0.9 0 1.6 -0.9 1.6 -2.4 0 -4.6 12.2 -20.6 15.8 -20.6 4.1 0 3 3.5 -3.8 13.6 -3.8 5.5 -8 11.4 -9.4 13 l-2.4 3.1 -0.7 -2.8 c-1 -4.2 -2.6 -3.7 -2.6 0.8 0 3.4 -0.2 3.8 -2.5 3.1 -3.2 -0.8 -3.9 1 -1.9 5.3 1.5 3 1.5 3.9 -0.1 8.8 -2.3 6.9 -2.2 7.8 0.5 9.7 1.8 1.3 2.4 2.9 2.7 7.9 0.2 3.4 0 6.3 -0.4 6.3 -0.5 0 -2.4 -0.8 -4.1 -2z"/>
  <path d="M464.8 509.3 c-7.3 -4.2 -7.6 -4.4 -5.8 -6.3 2.6 -2.8 11.9 -2.8 11.9 0 0 1 0.7 3.9 1.6 6.3 0.8 2.3 1.1 4.3 0.7 4.3 -0.4 0 -4.2 -2 -8.4 -4.3z"/>
  <path d="M504.2 494.9 c-1.7 -3.2 -1.3 -5.2 1.4 -5.7 4.3 -0.9 16 -2.7 17.6 -2.7 1.7 0 4.4 4.8 3.1 5.6 -1.3 0.7 -17.6 4.8 -19.4 4.8 -0.8 0 -2.1 -0.9 -2.7 -2z"/>
  <path d="M528.1 488.4 c-1 -1.9 -0.8 -2.5 0.7 -3.7 1 -0.7 3 -1.4 4.4 -1.4 2.2 0 2.4 0.3 1.8 2.8 -1.1 4.8 -4.9 6 -6.9 2.2z"/>
 </g>
 <g fill="#090203">
  <path d="M691.9 892.9 c1.5 -0.3 2.3 -1 2 -1.9 -0.4 -1 0.2 -1.1 3 -0.2 5.2 1.6 4.4 2.8 -1.9 2.7 -3 -0.1 -4.5 -0.4 -3.1 -0.6z"/>
  <path d="M649.3 865.4 c-10.2 -1.3 -13.9 -2.2 -12.9 -3.1 0.6 -0.6 5.3 -0.5 11.4 0.2 5.7 0.6 22.3 1.1 36.7 1.3 14.5 0 26.4 0.4 26.4 0.7 0 0.4 -1.5 0.9 -3.2 1.4 -4.4 0.8 -51 0.5 -58.4 -0.4z"/>
  <path d="M843.7 828.8 c0.2 -0.6 7.2 -4.7 15.5 -9 33.8 -17.3 62.5 -36.9 84.2 -57.1 4.6 -4.3 7.1 -5.8 8.4 -5.4 1.5 0.6 0.9 1.6 -2.9 5.4 -2.5 2.6 -10 9.3 -16.7 14.8 -20.1 16.8 -43.2 31.6 -69.2 44.7 -14.8 7.3 -20 9.2 -19.2 6.6z"/>
  <path d="M452.7 725.5 c-0.6 -2 -0.9 -4 -0.8 -4.4 0.1 -0.5 -0.5 -0.8 -1.4 -0.8 -0.8 0 -1.6 -0.4 -1.6 -1 0 -0.5 0.6 -0.7 1.4 -0.4 0.9 0.3 1.3 -0.7 1.1 -4 -0.2 -3 -0.1 -3.4 0.3 -1.4 0.3 1.7 0.9 3.4 1.5 3.8 0.6 0.3 0.9 3.1 0.7 6.3 -0.3 5.6 -0.3 5.6 -1.3 2z"/>
  <path d="M453.7 699.7 c0.1 -9.4 0.5 -17.3 0.8 -17.7 0.4 -0.3 1.6 -0.6 2.6 -0.7 1.6 -0.1 2.1 0.8 2.6 5.1 1 9.3 0.8 11.1 -1.5 11.1 -2.6 0 -2.9 0.6 -4 11 -0.7 7 -0.8 5.5 -0.6 -8.7z"/>
  <path d="M919.5 651.4 c2.3 -4.3 4.9 -8 5.8 -8.1 1.5 -0.3 1.1 0.8 -1.5 6.2 -2.5 4.8 -3.5 6.2 -4.3 5 -0.5 -0.8 -0.9 -0.9 -0.9 -0.3 0 0.5 -0.7 2 -1.7 3.1 -0.9 1 0.2 -1.6 2.5 -5.8z"/>
  <path d="M405.9 619.9 c2 -2.1 3.1 -4 2.6 -4.3 -0.4 -0.2 -3.4 -1 -6.6 -1.8 -9 -2 -9.7 -2.2 -8.7 -3.2 1.1 -1.1 16.3 1.8 16.8 3.3 0.2 0.5 1 1.6 1.8 2.4 1.3 1.1 0.6 1.9 -4 4.3 l-5.4 2.9 3.4 -3.7z"/>
  <path d="M680.2 604.2 c1.3 -1.4 1.4 -1.9 0.4 -1.9 -1.3 0 -1 -4.4 0.4 -10.4 0.2 -0.8 0.7 -3.5 1.1 -6 0.5 -3.1 1.9 -5.4 4.5 -7.8 3.9 -3.4 5.6 -4 21.1 -5.6 5.6 -0.7 5.7 -0.6 3.9 1.4 -1.8 2.1 -1.8 2.2 1.6 2.8 2 0.4 2.9 1 2.3 1.6 -0.5 0.6 -3.7 0.4 -8 -0.5 -5.4 -1.1 -7.6 -1.1 -9.4 -0.3 -2.1 1.1 -1.9 1.4 3 4 7.6 4 2.5 4.2 -6.3 0.2 -6.5 -2.9 -7 -3 -8.9 -1.4 -1.4 1.1 -2.4 4.3 -3.2 9.1 -0.6 4.1 -1.5 8.4 -1.8 9.6 -0.4 2 0 2.3 3.2 2.6 l3.9 0.3 -4.8 2.2 c-4.3 2 -4.6 2 -3 0.2z"/>
  <path d="M397.7 575.7 c1 -1.3 3.2 -1.6 9.5 -1.4 4.4 0.1 7.8 0.6 7.6 1 -0.2 0.3 0.2 0.9 0.8 1.1 0.7 0.3 -3.2 0.6 -9 0.6 -9.2 0.1 -10.1 -0.1 -9 -1.5z"/>
  <path d="M401.2 568.8 c-3 -1.1 -5.5 -2.6 -5.5 -3.1 0 -0.5 0.3 -0.9 0.8 -0.8 2 0.1 15.1 3.9 14 4 -0.7 0.1 -1 0.6 -0.7 1.1 1 1.7 -2.6 1.1 -8.6 -1.1z"/>
  <path d="M741.8 553.8 c-2.4 -1.8 -1.4 -3.7 2.1 -3.7 2 0 2.5 0.5 2.5 2.6 0 2.9 -1.7 3.3 -4.6 1z"/>
  <path d="M567.1 545.8 c-0.7 -0.7 -1.3 -1.9 -1.3 -2.6 0 -2 -4.3 -1.7 -5.8 0.5 -1.4 1.7 -1.5 1.7 -0.7 -0.2 0.5 -1.6 0.3 -1.9 -1 -1.4 -1.7 0.6 -1.7 0.4 -0.1 -2.7 1 -1.8 2 -2.8 2.2 -2.2 0.2 0.6 1.7 0.9 3.2 0.6 1.6 -0.2 4.3 0.2 6 0.8 2.9 1.1 3 1.3 1.1 2.6 -1 0.8 -2.5 1.7 -3.1 2 -0.7 0.3 -0.3 1.1 0.8 2.1 1.1 0.9 1.6 1.7 1 1.7 -0.6 0 -1.6 -0.5 -2.3 -1.3z"/>
  <path d="M508.4 537 c-4.6 -7.1 -6.2 -9 -7.4 -8.2 -0.5 0.4 -0.6 -0.1 -0.3 -0.9 0.9 -2.4 -4.1 -12.3 -8.4 -16.6 -2 -2.1 -6.1 -4.6 -8.9 -5.6 -4.9 -1.7 -6.2 -3.4 -2.5 -3.4 3.1 0 8.9 3.5 15.8 9.8 8.8 8 14.4 12.2 15.2 11.4 0.3 -0.4 0.6 -0.1 0.6 0.5 0 0.7 -0.5 1.3 -1.3 1.3 -0.6 0 -0.3 1 0.8 2.3 2 2.3 2 2.3 -1.5 -0.1 -3.4 -2.4 -6.5 -2.3 -6.5 0.2 0 0.8 1.9 4.4 4.3 8 2.3 3.5 4.1 6.7 3.9 6.9 -0.2 0.1 -2 -2.3 -4 -5.4z"/>
  <path d="M532.2 530.3 c0.2 -2.3 -0.1 -4.8 -0.6 -5.5 -0.8 -0.9 -0.4 -1.6 1.4 -2.4 2.2 -1 2.5 -0.9 3 2 0.9 4.6 0.7 9.1 -0.3 9.1 -0.5 0 -1.6 0.2 -2.4 0.5 -1 0.4 -1.4 -0.4 -1 -3.7z"/>
  <path d="M729.2 511.5 c-3.5 -3.8 -2.6 -5.3 1.6 -2.9 1.8 1 3.3 1.4 3.7 0.7 0.4 -0.5 1.7 -0.9 2.8 -0.9 2.2 0 2.1 0.2 -0.7 3.1 -1.7 1.8 -3.3 3.1 -3.7 3.1 -0.3 0 -2 -1.4 -3.7 -3.1z"/>
  <path d="M545.4 506 c0.3 -1 0.1 -2.9 -0.5 -4.1 -0.9 -1.8 -0.6 -2.6 1.8 -5.1 3.4 -3.5 4.6 -3.8 4.6 -0.9 0 1.1 0.7 2.1 1.6 2.1 0.9 0 1.6 0.9 1.5 2.4 -0.1 1.7 -0.2 1.9 -0.6 0.5 -0.8 -3.1 -2.3 -2.1 -2.7 2.1 -0.3 3.1 -0.4 2.9 -0.5 -1.6 -0.2 -6 -0.9 -6.7 -3.8 -3.5 -1.5 1.7 -1.6 2.5 -0.6 4.2 0.8 1.7 0.8 2.7 0 4.1 -1.1 1.7 -1.1 1.7 -0.6 -0.1z"/>
  <path d="M492.7 497.8 c-2 -0.9 -7.8 -3 -13 -4.5 -6.8 -2.1 -8.9 -3 -7.6 -3.8 1 -0.5 3.7 -0.2 7.2 1 9.9 3.4 11.4 3.5 11.4 1.1 0 -2.8 1.7 -2.6 3.2 0.3 0.6 1.3 2.3 3.4 3.7 4.9 2.1 2.3 2.2 2.7 0.6 2.7 -0.9 -0.1 -3.4 -0.8 -5.4 -1.9z"/>
  <path d="M547.9 486.3 c0.9 -1.1 1.1 -3 0.7 -5.3 -0.5 -2.7 -0.3 -3.5 0.9 -3.5 0.8 0 2 1.4 2.6 2.8 0.8 2.5 0.5 3.1 -2.3 5.3 -1.9 1.3 -2.7 1.7 -2 0.7z"/>
  <path d="M551.2 466.4 c2.7 -6 2.7 -13.4 0 -16.7 -1 -1.5 -6.2 -4.4 -11.2 -6.6 -11.4 -5 -12.8 -6.3 -12.7 -10.3 0.1 -2.5 0.3 -2.7 0.6 -0.8 0.2 1.3 0.8 2.1 1.4 1.8 0.4 -0.3 0.6 0.3 0.3 1.4 -0.3 1.6 1.5 2.7 10.1 6.5 12.5 5.4 14.6 7.5 14.6 15 0 4.7 -3.1 14.2 -4.6 14.2 -0.3 0 0.4 -2 1.5 -4.4z"/>
  <path d="M402.4 419.7 c-4.5 -3.4 -9.9 -6.8 -12.1 -7.5 -3.3 -0.9 -3.9 -1.5 -2.8 -2.6 0.8 -1 2.4 -1.3 5.4 -0.7 5.2 0.8 7.2 1.8 12.7 6.4 l4.3 3.4 6.3 -7.5 c6 -7.3 12.9 -12.5 14.5 -11 0.4 0.4 -0.6 2.3 -2.3 4.2 -4.2 4.5 -11.2 14.1 -13.4 18.3 -0.9 1.8 -2.4 3.3 -3.1 3.3 -0.7 0 -5 -2.8 -9.5 -6.3z"/>
  <path d="M573.6 390.3 c-10.1 -7 -14.4 -9.3 -16.7 -9.2 -4.9 0.2 -6 0 -5.2 -1.1 1.6 -2.5 6.7 -0.6 17.6 6.2 9.8 6.2 20.3 13.8 18.4 13.5 -0.3 0 -6.6 -4.3 -14.1 -9.3z"/>
  <path d="M873.3 380 c-0.4 -0.6 0.1 -1.8 1.1 -2.6 1.9 -1.4 1.9 -1.5 -0.1 -3.7 -2.9 -3.2 -12 -8.4 -14.8 -8.4 -3.2 0 -3 -1.7 0.3 -2.5 5.4 -1.4 13.5 1.7 18.5 7 2.6 2.8 3 2.9 4.7 1.5 3.1 -2.8 9.3 -4.9 14.7 -4.9 8.9 0 9.5 1.3 1.7 3.3 -8.8 2.4 -13.3 5.4 -12.8 8.6 0.3 2 -0.2 2.2 -6.2 2.5 -3.9 0.2 -6.7 -0.1 -7.1 -0.8z"/>
  <path d="M334.5 266.5 c0.4 -0.7 -0.3 -1.4 -1.7 -1.6 -2.3 -0.3 -2.2 -0.5 0.9 -2.2 1.9 -0.9 3.5 -1.8 4 -1.8 1.1 0 0.4 2 -1.7 4.3 -1.1 1.4 -1.9 2 -1.6 1.3z"/>
  <path d="M784.8 234.3 c-3.5 -1.9 -3.8 -3.5 -0.5 -3.5 3.2 0 4.7 1.3 4 3.3 -0.5 1.6 -0.9 1.6 -3.4 0.2z"/>
 </g>
</svg>